%TF.GenerationSoftware,KiCad,Pcbnew,8.0.8*%
%TF.CreationDate,2025-03-16T01:19:43+08:00*%
%TF.ProjectId,TwoWayAudioSwitch-V1,54776f57-6179-4417-9564-696f53776974,rev?*%
%TF.SameCoordinates,Original*%
%TF.FileFunction,Legend,Top*%
%TF.FilePolarity,Positive*%
%FSLAX46Y46*%
G04 Gerber Fmt 4.6, Leading zero omitted, Abs format (unit mm)*
G04 Created by KiCad (PCBNEW 8.0.8) date 2025-03-16 01:19:43*
%MOMM*%
%LPD*%
G01*
G04 APERTURE LIST*
%ADD10C,0.100000*%
%ADD11C,0.150000*%
%ADD12C,0.120000*%
%ADD13C,0.000000*%
G04 APERTURE END LIST*
D10*
X136663760Y-67960419D02*
X136854236Y-67960419D01*
X136854236Y-67960419D02*
X136949474Y-68008038D01*
X136949474Y-68008038D02*
X137044712Y-68103276D01*
X137044712Y-68103276D02*
X137092331Y-68293752D01*
X137092331Y-68293752D02*
X137092331Y-68627085D01*
X137092331Y-68627085D02*
X137044712Y-68817561D01*
X137044712Y-68817561D02*
X136949474Y-68912800D01*
X136949474Y-68912800D02*
X136854236Y-68960419D01*
X136854236Y-68960419D02*
X136663760Y-68960419D01*
X136663760Y-68960419D02*
X136568522Y-68912800D01*
X136568522Y-68912800D02*
X136473284Y-68817561D01*
X136473284Y-68817561D02*
X136425665Y-68627085D01*
X136425665Y-68627085D02*
X136425665Y-68293752D01*
X136425665Y-68293752D02*
X136473284Y-68103276D01*
X136473284Y-68103276D02*
X136568522Y-68008038D01*
X136568522Y-68008038D02*
X136663760Y-67960419D01*
X137949474Y-68293752D02*
X137949474Y-68960419D01*
X137520903Y-68293752D02*
X137520903Y-68817561D01*
X137520903Y-68817561D02*
X137568522Y-68912800D01*
X137568522Y-68912800D02*
X137663760Y-68960419D01*
X137663760Y-68960419D02*
X137806617Y-68960419D01*
X137806617Y-68960419D02*
X137901855Y-68912800D01*
X137901855Y-68912800D02*
X137949474Y-68865180D01*
X138282808Y-68293752D02*
X138663760Y-68293752D01*
X138425665Y-67960419D02*
X138425665Y-68817561D01*
X138425665Y-68817561D02*
X138473284Y-68912800D01*
X138473284Y-68912800D02*
X138568522Y-68960419D01*
X138568522Y-68960419D02*
X138663760Y-68960419D01*
X138997094Y-68293752D02*
X138997094Y-69293752D01*
X138997094Y-68341371D02*
X139092332Y-68293752D01*
X139092332Y-68293752D02*
X139282808Y-68293752D01*
X139282808Y-68293752D02*
X139378046Y-68341371D01*
X139378046Y-68341371D02*
X139425665Y-68388990D01*
X139425665Y-68388990D02*
X139473284Y-68484228D01*
X139473284Y-68484228D02*
X139473284Y-68769942D01*
X139473284Y-68769942D02*
X139425665Y-68865180D01*
X139425665Y-68865180D02*
X139378046Y-68912800D01*
X139378046Y-68912800D02*
X139282808Y-68960419D01*
X139282808Y-68960419D02*
X139092332Y-68960419D01*
X139092332Y-68960419D02*
X138997094Y-68912800D01*
X140330427Y-68293752D02*
X140330427Y-68960419D01*
X139901856Y-68293752D02*
X139901856Y-68817561D01*
X139901856Y-68817561D02*
X139949475Y-68912800D01*
X139949475Y-68912800D02*
X140044713Y-68960419D01*
X140044713Y-68960419D02*
X140187570Y-68960419D01*
X140187570Y-68960419D02*
X140282808Y-68912800D01*
X140282808Y-68912800D02*
X140330427Y-68865180D01*
X140663761Y-68293752D02*
X141044713Y-68293752D01*
X140806618Y-67960419D02*
X140806618Y-68817561D01*
X140806618Y-68817561D02*
X140854237Y-68912800D01*
X140854237Y-68912800D02*
X140949475Y-68960419D01*
X140949475Y-68960419D02*
X141044713Y-68960419D01*
X125652884Y-82158675D02*
X125652884Y-81158675D01*
X126129074Y-81492008D02*
X126129074Y-82158675D01*
X126129074Y-81587246D02*
X126176693Y-81539627D01*
X126176693Y-81539627D02*
X126271931Y-81492008D01*
X126271931Y-81492008D02*
X126414788Y-81492008D01*
X126414788Y-81492008D02*
X126510026Y-81539627D01*
X126510026Y-81539627D02*
X126557645Y-81634865D01*
X126557645Y-81634865D02*
X126557645Y-82158675D01*
X127033836Y-81492008D02*
X127033836Y-82492008D01*
X127033836Y-81539627D02*
X127129074Y-81492008D01*
X127129074Y-81492008D02*
X127319550Y-81492008D01*
X127319550Y-81492008D02*
X127414788Y-81539627D01*
X127414788Y-81539627D02*
X127462407Y-81587246D01*
X127462407Y-81587246D02*
X127510026Y-81682484D01*
X127510026Y-81682484D02*
X127510026Y-81968198D01*
X127510026Y-81968198D02*
X127462407Y-82063436D01*
X127462407Y-82063436D02*
X127414788Y-82111056D01*
X127414788Y-82111056D02*
X127319550Y-82158675D01*
X127319550Y-82158675D02*
X127129074Y-82158675D01*
X127129074Y-82158675D02*
X127033836Y-82111056D01*
X128367169Y-81492008D02*
X128367169Y-82158675D01*
X127938598Y-81492008D02*
X127938598Y-82015817D01*
X127938598Y-82015817D02*
X127986217Y-82111056D01*
X127986217Y-82111056D02*
X128081455Y-82158675D01*
X128081455Y-82158675D02*
X128224312Y-82158675D01*
X128224312Y-82158675D02*
X128319550Y-82111056D01*
X128319550Y-82111056D02*
X128367169Y-82063436D01*
X128700503Y-81492008D02*
X129081455Y-81492008D01*
X128843360Y-81158675D02*
X128843360Y-82015817D01*
X128843360Y-82015817D02*
X128890979Y-82111056D01*
X128890979Y-82111056D02*
X128986217Y-82158675D01*
X128986217Y-82158675D02*
X129081455Y-82158675D01*
X130129075Y-81253913D02*
X130176694Y-81206294D01*
X130176694Y-81206294D02*
X130271932Y-81158675D01*
X130271932Y-81158675D02*
X130510027Y-81158675D01*
X130510027Y-81158675D02*
X130605265Y-81206294D01*
X130605265Y-81206294D02*
X130652884Y-81253913D01*
X130652884Y-81253913D02*
X130700503Y-81349151D01*
X130700503Y-81349151D02*
X130700503Y-81444389D01*
X130700503Y-81444389D02*
X130652884Y-81587246D01*
X130652884Y-81587246D02*
X130081456Y-82158675D01*
X130081456Y-82158675D02*
X130700503Y-82158675D01*
X125938598Y-84149571D02*
X125890979Y-84101952D01*
X125890979Y-84101952D02*
X125795741Y-83959095D01*
X125795741Y-83959095D02*
X125748122Y-83863857D01*
X125748122Y-83863857D02*
X125700503Y-83721000D01*
X125700503Y-83721000D02*
X125652884Y-83482904D01*
X125652884Y-83482904D02*
X125652884Y-83292428D01*
X125652884Y-83292428D02*
X125700503Y-83054333D01*
X125700503Y-83054333D02*
X125748122Y-82911476D01*
X125748122Y-82911476D02*
X125795741Y-82816238D01*
X125795741Y-82816238D02*
X125890979Y-82673380D01*
X125890979Y-82673380D02*
X125938598Y-82625761D01*
X126890979Y-83768619D02*
X126557646Y-83292428D01*
X126319551Y-83768619D02*
X126319551Y-82768619D01*
X126319551Y-82768619D02*
X126700503Y-82768619D01*
X126700503Y-82768619D02*
X126795741Y-82816238D01*
X126795741Y-82816238D02*
X126843360Y-82863857D01*
X126843360Y-82863857D02*
X126890979Y-82959095D01*
X126890979Y-82959095D02*
X126890979Y-83101952D01*
X126890979Y-83101952D02*
X126843360Y-83197190D01*
X126843360Y-83197190D02*
X126795741Y-83244809D01*
X126795741Y-83244809D02*
X126700503Y-83292428D01*
X126700503Y-83292428D02*
X126319551Y-83292428D01*
X127700503Y-83721000D02*
X127605265Y-83768619D01*
X127605265Y-83768619D02*
X127414789Y-83768619D01*
X127414789Y-83768619D02*
X127319551Y-83721000D01*
X127319551Y-83721000D02*
X127271932Y-83625761D01*
X127271932Y-83625761D02*
X127271932Y-83244809D01*
X127271932Y-83244809D02*
X127319551Y-83149571D01*
X127319551Y-83149571D02*
X127414789Y-83101952D01*
X127414789Y-83101952D02*
X127605265Y-83101952D01*
X127605265Y-83101952D02*
X127700503Y-83149571D01*
X127700503Y-83149571D02*
X127748122Y-83244809D01*
X127748122Y-83244809D02*
X127748122Y-83340047D01*
X127748122Y-83340047D02*
X127271932Y-83435285D01*
X128319551Y-83768619D02*
X128224313Y-83721000D01*
X128224313Y-83721000D02*
X128176694Y-83625761D01*
X128176694Y-83625761D02*
X128176694Y-82768619D01*
X129081456Y-83721000D02*
X128986218Y-83768619D01*
X128986218Y-83768619D02*
X128795742Y-83768619D01*
X128795742Y-83768619D02*
X128700504Y-83721000D01*
X128700504Y-83721000D02*
X128652885Y-83625761D01*
X128652885Y-83625761D02*
X128652885Y-83244809D01*
X128652885Y-83244809D02*
X128700504Y-83149571D01*
X128700504Y-83149571D02*
X128795742Y-83101952D01*
X128795742Y-83101952D02*
X128986218Y-83101952D01*
X128986218Y-83101952D02*
X129081456Y-83149571D01*
X129081456Y-83149571D02*
X129129075Y-83244809D01*
X129129075Y-83244809D02*
X129129075Y-83340047D01*
X129129075Y-83340047D02*
X128652885Y-83435285D01*
X129986218Y-83768619D02*
X129986218Y-83244809D01*
X129986218Y-83244809D02*
X129938599Y-83149571D01*
X129938599Y-83149571D02*
X129843361Y-83101952D01*
X129843361Y-83101952D02*
X129652885Y-83101952D01*
X129652885Y-83101952D02*
X129557647Y-83149571D01*
X129986218Y-83721000D02*
X129890980Y-83768619D01*
X129890980Y-83768619D02*
X129652885Y-83768619D01*
X129652885Y-83768619D02*
X129557647Y-83721000D01*
X129557647Y-83721000D02*
X129510028Y-83625761D01*
X129510028Y-83625761D02*
X129510028Y-83530523D01*
X129510028Y-83530523D02*
X129557647Y-83435285D01*
X129557647Y-83435285D02*
X129652885Y-83387666D01*
X129652885Y-83387666D02*
X129890980Y-83387666D01*
X129890980Y-83387666D02*
X129986218Y-83340047D01*
X130414790Y-83721000D02*
X130510028Y-83768619D01*
X130510028Y-83768619D02*
X130700504Y-83768619D01*
X130700504Y-83768619D02*
X130795742Y-83721000D01*
X130795742Y-83721000D02*
X130843361Y-83625761D01*
X130843361Y-83625761D02*
X130843361Y-83578142D01*
X130843361Y-83578142D02*
X130795742Y-83482904D01*
X130795742Y-83482904D02*
X130700504Y-83435285D01*
X130700504Y-83435285D02*
X130557647Y-83435285D01*
X130557647Y-83435285D02*
X130462409Y-83387666D01*
X130462409Y-83387666D02*
X130414790Y-83292428D01*
X130414790Y-83292428D02*
X130414790Y-83244809D01*
X130414790Y-83244809D02*
X130462409Y-83149571D01*
X130462409Y-83149571D02*
X130557647Y-83101952D01*
X130557647Y-83101952D02*
X130700504Y-83101952D01*
X130700504Y-83101952D02*
X130795742Y-83149571D01*
X131652885Y-83721000D02*
X131557647Y-83768619D01*
X131557647Y-83768619D02*
X131367171Y-83768619D01*
X131367171Y-83768619D02*
X131271933Y-83721000D01*
X131271933Y-83721000D02*
X131224314Y-83625761D01*
X131224314Y-83625761D02*
X131224314Y-83244809D01*
X131224314Y-83244809D02*
X131271933Y-83149571D01*
X131271933Y-83149571D02*
X131367171Y-83101952D01*
X131367171Y-83101952D02*
X131557647Y-83101952D01*
X131557647Y-83101952D02*
X131652885Y-83149571D01*
X131652885Y-83149571D02*
X131700504Y-83244809D01*
X131700504Y-83244809D02*
X131700504Y-83340047D01*
X131700504Y-83340047D02*
X131224314Y-83435285D01*
X132033838Y-84149571D02*
X132081457Y-84101952D01*
X132081457Y-84101952D02*
X132176695Y-83959095D01*
X132176695Y-83959095D02*
X132224314Y-83863857D01*
X132224314Y-83863857D02*
X132271933Y-83721000D01*
X132271933Y-83721000D02*
X132319552Y-83482904D01*
X132319552Y-83482904D02*
X132319552Y-83292428D01*
X132319552Y-83292428D02*
X132271933Y-83054333D01*
X132271933Y-83054333D02*
X132224314Y-82911476D01*
X132224314Y-82911476D02*
X132176695Y-82816238D01*
X132176695Y-82816238D02*
X132081457Y-82673380D01*
X132081457Y-82673380D02*
X132033838Y-82625761D01*
X125551284Y-67680675D02*
X125551284Y-66680675D01*
X126027474Y-67014008D02*
X126027474Y-67680675D01*
X126027474Y-67109246D02*
X126075093Y-67061627D01*
X126075093Y-67061627D02*
X126170331Y-67014008D01*
X126170331Y-67014008D02*
X126313188Y-67014008D01*
X126313188Y-67014008D02*
X126408426Y-67061627D01*
X126408426Y-67061627D02*
X126456045Y-67156865D01*
X126456045Y-67156865D02*
X126456045Y-67680675D01*
X126932236Y-67014008D02*
X126932236Y-68014008D01*
X126932236Y-67061627D02*
X127027474Y-67014008D01*
X127027474Y-67014008D02*
X127217950Y-67014008D01*
X127217950Y-67014008D02*
X127313188Y-67061627D01*
X127313188Y-67061627D02*
X127360807Y-67109246D01*
X127360807Y-67109246D02*
X127408426Y-67204484D01*
X127408426Y-67204484D02*
X127408426Y-67490198D01*
X127408426Y-67490198D02*
X127360807Y-67585436D01*
X127360807Y-67585436D02*
X127313188Y-67633056D01*
X127313188Y-67633056D02*
X127217950Y-67680675D01*
X127217950Y-67680675D02*
X127027474Y-67680675D01*
X127027474Y-67680675D02*
X126932236Y-67633056D01*
X128265569Y-67014008D02*
X128265569Y-67680675D01*
X127836998Y-67014008D02*
X127836998Y-67537817D01*
X127836998Y-67537817D02*
X127884617Y-67633056D01*
X127884617Y-67633056D02*
X127979855Y-67680675D01*
X127979855Y-67680675D02*
X128122712Y-67680675D01*
X128122712Y-67680675D02*
X128217950Y-67633056D01*
X128217950Y-67633056D02*
X128265569Y-67585436D01*
X128598903Y-67014008D02*
X128979855Y-67014008D01*
X128741760Y-66680675D02*
X128741760Y-67537817D01*
X128741760Y-67537817D02*
X128789379Y-67633056D01*
X128789379Y-67633056D02*
X128884617Y-67680675D01*
X128884617Y-67680675D02*
X128979855Y-67680675D01*
X130598903Y-67680675D02*
X130027475Y-67680675D01*
X130313189Y-67680675D02*
X130313189Y-66680675D01*
X130313189Y-66680675D02*
X130217951Y-66823532D01*
X130217951Y-66823532D02*
X130122713Y-66918770D01*
X130122713Y-66918770D02*
X130027475Y-66966389D01*
X125836998Y-69671571D02*
X125789379Y-69623952D01*
X125789379Y-69623952D02*
X125694141Y-69481095D01*
X125694141Y-69481095D02*
X125646522Y-69385857D01*
X125646522Y-69385857D02*
X125598903Y-69243000D01*
X125598903Y-69243000D02*
X125551284Y-69004904D01*
X125551284Y-69004904D02*
X125551284Y-68814428D01*
X125551284Y-68814428D02*
X125598903Y-68576333D01*
X125598903Y-68576333D02*
X125646522Y-68433476D01*
X125646522Y-68433476D02*
X125694141Y-68338238D01*
X125694141Y-68338238D02*
X125789379Y-68195380D01*
X125789379Y-68195380D02*
X125836998Y-68147761D01*
X126217951Y-69290619D02*
X126217951Y-68290619D01*
X126217951Y-68290619D02*
X126598903Y-68290619D01*
X126598903Y-68290619D02*
X126694141Y-68338238D01*
X126694141Y-68338238D02*
X126741760Y-68385857D01*
X126741760Y-68385857D02*
X126789379Y-68481095D01*
X126789379Y-68481095D02*
X126789379Y-68623952D01*
X126789379Y-68623952D02*
X126741760Y-68719190D01*
X126741760Y-68719190D02*
X126694141Y-68766809D01*
X126694141Y-68766809D02*
X126598903Y-68814428D01*
X126598903Y-68814428D02*
X126217951Y-68814428D01*
X127646522Y-68623952D02*
X127646522Y-69290619D01*
X127217951Y-68623952D02*
X127217951Y-69147761D01*
X127217951Y-69147761D02*
X127265570Y-69243000D01*
X127265570Y-69243000D02*
X127360808Y-69290619D01*
X127360808Y-69290619D02*
X127503665Y-69290619D01*
X127503665Y-69290619D02*
X127598903Y-69243000D01*
X127598903Y-69243000D02*
X127646522Y-69195380D01*
X128075094Y-69243000D02*
X128170332Y-69290619D01*
X128170332Y-69290619D02*
X128360808Y-69290619D01*
X128360808Y-69290619D02*
X128456046Y-69243000D01*
X128456046Y-69243000D02*
X128503665Y-69147761D01*
X128503665Y-69147761D02*
X128503665Y-69100142D01*
X128503665Y-69100142D02*
X128456046Y-69004904D01*
X128456046Y-69004904D02*
X128360808Y-68957285D01*
X128360808Y-68957285D02*
X128217951Y-68957285D01*
X128217951Y-68957285D02*
X128122713Y-68909666D01*
X128122713Y-68909666D02*
X128075094Y-68814428D01*
X128075094Y-68814428D02*
X128075094Y-68766809D01*
X128075094Y-68766809D02*
X128122713Y-68671571D01*
X128122713Y-68671571D02*
X128217951Y-68623952D01*
X128217951Y-68623952D02*
X128360808Y-68623952D01*
X128360808Y-68623952D02*
X128456046Y-68671571D01*
X128932237Y-69290619D02*
X128932237Y-68290619D01*
X129360808Y-69290619D02*
X129360808Y-68766809D01*
X129360808Y-68766809D02*
X129313189Y-68671571D01*
X129313189Y-68671571D02*
X129217951Y-68623952D01*
X129217951Y-68623952D02*
X129075094Y-68623952D01*
X129075094Y-68623952D02*
X128979856Y-68671571D01*
X128979856Y-68671571D02*
X128932237Y-68719190D01*
X129741761Y-69671571D02*
X129789380Y-69623952D01*
X129789380Y-69623952D02*
X129884618Y-69481095D01*
X129884618Y-69481095D02*
X129932237Y-69385857D01*
X129932237Y-69385857D02*
X129979856Y-69243000D01*
X129979856Y-69243000D02*
X130027475Y-69004904D01*
X130027475Y-69004904D02*
X130027475Y-68814428D01*
X130027475Y-68814428D02*
X129979856Y-68576333D01*
X129979856Y-68576333D02*
X129932237Y-68433476D01*
X129932237Y-68433476D02*
X129884618Y-68338238D01*
X129884618Y-68338238D02*
X129789380Y-68195380D01*
X129789380Y-68195380D02*
X129741761Y-68147761D01*
X133098265Y-85794304D02*
X133574455Y-85794304D01*
X133003027Y-86080019D02*
X133336360Y-85080019D01*
X133336360Y-85080019D02*
X133669693Y-86080019D01*
X134431598Y-85413352D02*
X134431598Y-86080019D01*
X134003027Y-85413352D02*
X134003027Y-85937161D01*
X134003027Y-85937161D02*
X134050646Y-86032400D01*
X134050646Y-86032400D02*
X134145884Y-86080019D01*
X134145884Y-86080019D02*
X134288741Y-86080019D01*
X134288741Y-86080019D02*
X134383979Y-86032400D01*
X134383979Y-86032400D02*
X134431598Y-85984780D01*
X135336360Y-86080019D02*
X135336360Y-85080019D01*
X135336360Y-86032400D02*
X135241122Y-86080019D01*
X135241122Y-86080019D02*
X135050646Y-86080019D01*
X135050646Y-86080019D02*
X134955408Y-86032400D01*
X134955408Y-86032400D02*
X134907789Y-85984780D01*
X134907789Y-85984780D02*
X134860170Y-85889542D01*
X134860170Y-85889542D02*
X134860170Y-85603828D01*
X134860170Y-85603828D02*
X134907789Y-85508590D01*
X134907789Y-85508590D02*
X134955408Y-85460971D01*
X134955408Y-85460971D02*
X135050646Y-85413352D01*
X135050646Y-85413352D02*
X135241122Y-85413352D01*
X135241122Y-85413352D02*
X135336360Y-85460971D01*
X135812551Y-86080019D02*
X135812551Y-85413352D01*
X135812551Y-85080019D02*
X135764932Y-85127638D01*
X135764932Y-85127638D02*
X135812551Y-85175257D01*
X135812551Y-85175257D02*
X135860170Y-85127638D01*
X135860170Y-85127638D02*
X135812551Y-85080019D01*
X135812551Y-85080019D02*
X135812551Y-85175257D01*
X136431598Y-86080019D02*
X136336360Y-86032400D01*
X136336360Y-86032400D02*
X136288741Y-85984780D01*
X136288741Y-85984780D02*
X136241122Y-85889542D01*
X136241122Y-85889542D02*
X136241122Y-85603828D01*
X136241122Y-85603828D02*
X136288741Y-85508590D01*
X136288741Y-85508590D02*
X136336360Y-85460971D01*
X136336360Y-85460971D02*
X136431598Y-85413352D01*
X136431598Y-85413352D02*
X136574455Y-85413352D01*
X136574455Y-85413352D02*
X136669693Y-85460971D01*
X136669693Y-85460971D02*
X136717312Y-85508590D01*
X136717312Y-85508590D02*
X136764931Y-85603828D01*
X136764931Y-85603828D02*
X136764931Y-85889542D01*
X136764931Y-85889542D02*
X136717312Y-85984780D01*
X136717312Y-85984780D02*
X136669693Y-86032400D01*
X136669693Y-86032400D02*
X136574455Y-86080019D01*
X136574455Y-86080019D02*
X136431598Y-86080019D01*
X137907789Y-86032400D02*
X138050646Y-86080019D01*
X138050646Y-86080019D02*
X138288741Y-86080019D01*
X138288741Y-86080019D02*
X138383979Y-86032400D01*
X138383979Y-86032400D02*
X138431598Y-85984780D01*
X138431598Y-85984780D02*
X138479217Y-85889542D01*
X138479217Y-85889542D02*
X138479217Y-85794304D01*
X138479217Y-85794304D02*
X138431598Y-85699066D01*
X138431598Y-85699066D02*
X138383979Y-85651447D01*
X138383979Y-85651447D02*
X138288741Y-85603828D01*
X138288741Y-85603828D02*
X138098265Y-85556209D01*
X138098265Y-85556209D02*
X138003027Y-85508590D01*
X138003027Y-85508590D02*
X137955408Y-85460971D01*
X137955408Y-85460971D02*
X137907789Y-85365733D01*
X137907789Y-85365733D02*
X137907789Y-85270495D01*
X137907789Y-85270495D02*
X137955408Y-85175257D01*
X137955408Y-85175257D02*
X138003027Y-85127638D01*
X138003027Y-85127638D02*
X138098265Y-85080019D01*
X138098265Y-85080019D02*
X138336360Y-85080019D01*
X138336360Y-85080019D02*
X138479217Y-85127638D01*
X138812551Y-85413352D02*
X139003027Y-86080019D01*
X139003027Y-86080019D02*
X139193503Y-85603828D01*
X139193503Y-85603828D02*
X139383979Y-86080019D01*
X139383979Y-86080019D02*
X139574455Y-85413352D01*
X139955408Y-86080019D02*
X139955408Y-85413352D01*
X139955408Y-85080019D02*
X139907789Y-85127638D01*
X139907789Y-85127638D02*
X139955408Y-85175257D01*
X139955408Y-85175257D02*
X140003027Y-85127638D01*
X140003027Y-85127638D02*
X139955408Y-85080019D01*
X139955408Y-85080019D02*
X139955408Y-85175257D01*
X140288741Y-85413352D02*
X140669693Y-85413352D01*
X140431598Y-85080019D02*
X140431598Y-85937161D01*
X140431598Y-85937161D02*
X140479217Y-86032400D01*
X140479217Y-86032400D02*
X140574455Y-86080019D01*
X140574455Y-86080019D02*
X140669693Y-86080019D01*
X141431598Y-86032400D02*
X141336360Y-86080019D01*
X141336360Y-86080019D02*
X141145884Y-86080019D01*
X141145884Y-86080019D02*
X141050646Y-86032400D01*
X141050646Y-86032400D02*
X141003027Y-85984780D01*
X141003027Y-85984780D02*
X140955408Y-85889542D01*
X140955408Y-85889542D02*
X140955408Y-85603828D01*
X140955408Y-85603828D02*
X141003027Y-85508590D01*
X141003027Y-85508590D02*
X141050646Y-85460971D01*
X141050646Y-85460971D02*
X141145884Y-85413352D01*
X141145884Y-85413352D02*
X141336360Y-85413352D01*
X141336360Y-85413352D02*
X141431598Y-85460971D01*
X141860170Y-86080019D02*
X141860170Y-85080019D01*
X142288741Y-86080019D02*
X142288741Y-85556209D01*
X142288741Y-85556209D02*
X142241122Y-85460971D01*
X142241122Y-85460971D02*
X142145884Y-85413352D01*
X142145884Y-85413352D02*
X142003027Y-85413352D01*
X142003027Y-85413352D02*
X141907789Y-85460971D01*
X141907789Y-85460971D02*
X141860170Y-85508590D01*
X143050646Y-86460971D02*
X143003027Y-86413352D01*
X143003027Y-86413352D02*
X142907789Y-86270495D01*
X142907789Y-86270495D02*
X142860170Y-86175257D01*
X142860170Y-86175257D02*
X142812551Y-86032400D01*
X142812551Y-86032400D02*
X142764932Y-85794304D01*
X142764932Y-85794304D02*
X142764932Y-85603828D01*
X142764932Y-85603828D02*
X142812551Y-85365733D01*
X142812551Y-85365733D02*
X142860170Y-85222876D01*
X142860170Y-85222876D02*
X142907789Y-85127638D01*
X142907789Y-85127638D02*
X143003027Y-84984780D01*
X143003027Y-84984780D02*
X143050646Y-84937161D01*
X143383980Y-85175257D02*
X143431599Y-85127638D01*
X143431599Y-85127638D02*
X143526837Y-85080019D01*
X143526837Y-85080019D02*
X143764932Y-85080019D01*
X143764932Y-85080019D02*
X143860170Y-85127638D01*
X143860170Y-85127638D02*
X143907789Y-85175257D01*
X143907789Y-85175257D02*
X143955408Y-85270495D01*
X143955408Y-85270495D02*
X143955408Y-85365733D01*
X143955408Y-85365733D02*
X143907789Y-85508590D01*
X143907789Y-85508590D02*
X143336361Y-86080019D01*
X143336361Y-86080019D02*
X143955408Y-86080019D01*
X144383980Y-86080019D02*
X144383980Y-85080019D01*
X144860170Y-85413352D02*
X144860170Y-86080019D01*
X144860170Y-85508590D02*
X144907789Y-85460971D01*
X144907789Y-85460971D02*
X145003027Y-85413352D01*
X145003027Y-85413352D02*
X145145884Y-85413352D01*
X145145884Y-85413352D02*
X145241122Y-85460971D01*
X145241122Y-85460971D02*
X145288741Y-85556209D01*
X145288741Y-85556209D02*
X145288741Y-86080019D01*
X147050646Y-86080019D02*
X146479218Y-86080019D01*
X146764932Y-86080019D02*
X146764932Y-85080019D01*
X146764932Y-85080019D02*
X146669694Y-85222876D01*
X146669694Y-85222876D02*
X146574456Y-85318114D01*
X146574456Y-85318114D02*
X146479218Y-85365733D01*
X147669694Y-85080019D02*
X147860170Y-85080019D01*
X147860170Y-85080019D02*
X147955408Y-85127638D01*
X147955408Y-85127638D02*
X148050646Y-85222876D01*
X148050646Y-85222876D02*
X148098265Y-85413352D01*
X148098265Y-85413352D02*
X148098265Y-85746685D01*
X148098265Y-85746685D02*
X148050646Y-85937161D01*
X148050646Y-85937161D02*
X147955408Y-86032400D01*
X147955408Y-86032400D02*
X147860170Y-86080019D01*
X147860170Y-86080019D02*
X147669694Y-86080019D01*
X147669694Y-86080019D02*
X147574456Y-86032400D01*
X147574456Y-86032400D02*
X147479218Y-85937161D01*
X147479218Y-85937161D02*
X147431599Y-85746685D01*
X147431599Y-85746685D02*
X147431599Y-85413352D01*
X147431599Y-85413352D02*
X147479218Y-85222876D01*
X147479218Y-85222876D02*
X147574456Y-85127638D01*
X147574456Y-85127638D02*
X147669694Y-85080019D01*
X148955408Y-85413352D02*
X148955408Y-86080019D01*
X148526837Y-85413352D02*
X148526837Y-85937161D01*
X148526837Y-85937161D02*
X148574456Y-86032400D01*
X148574456Y-86032400D02*
X148669694Y-86080019D01*
X148669694Y-86080019D02*
X148812551Y-86080019D01*
X148812551Y-86080019D02*
X148907789Y-86032400D01*
X148907789Y-86032400D02*
X148955408Y-85984780D01*
X149288742Y-85413352D02*
X149669694Y-85413352D01*
X149431599Y-85080019D02*
X149431599Y-85937161D01*
X149431599Y-85937161D02*
X149479218Y-86032400D01*
X149479218Y-86032400D02*
X149574456Y-86080019D01*
X149574456Y-86080019D02*
X149669694Y-86080019D01*
X149907790Y-86460971D02*
X149955409Y-86413352D01*
X149955409Y-86413352D02*
X150050647Y-86270495D01*
X150050647Y-86270495D02*
X150098266Y-86175257D01*
X150098266Y-86175257D02*
X150145885Y-86032400D01*
X150145885Y-86032400D02*
X150193504Y-85794304D01*
X150193504Y-85794304D02*
X150193504Y-85603828D01*
X150193504Y-85603828D02*
X150145885Y-85365733D01*
X150145885Y-85365733D02*
X150098266Y-85222876D01*
X150098266Y-85222876D02*
X150050647Y-85127638D01*
X150050647Y-85127638D02*
X149955409Y-84984780D01*
X149955409Y-84984780D02*
X149907790Y-84937161D01*
X135473093Y-83438419D02*
X134901665Y-83438419D01*
X135187379Y-83438419D02*
X135187379Y-82438419D01*
X135187379Y-82438419D02*
X135092141Y-82581276D01*
X135092141Y-82581276D02*
X134996903Y-82676514D01*
X134996903Y-82676514D02*
X134901665Y-82724133D01*
X136330236Y-82438419D02*
X136139760Y-82438419D01*
X136139760Y-82438419D02*
X136044522Y-82486038D01*
X136044522Y-82486038D02*
X135996903Y-82533657D01*
X135996903Y-82533657D02*
X135901665Y-82676514D01*
X135901665Y-82676514D02*
X135854046Y-82866990D01*
X135854046Y-82866990D02*
X135854046Y-83247942D01*
X135854046Y-83247942D02*
X135901665Y-83343180D01*
X135901665Y-83343180D02*
X135949284Y-83390800D01*
X135949284Y-83390800D02*
X136044522Y-83438419D01*
X136044522Y-83438419D02*
X136234998Y-83438419D01*
X136234998Y-83438419D02*
X136330236Y-83390800D01*
X136330236Y-83390800D02*
X136377855Y-83343180D01*
X136377855Y-83343180D02*
X136425474Y-83247942D01*
X136425474Y-83247942D02*
X136425474Y-83009847D01*
X136425474Y-83009847D02*
X136377855Y-82914609D01*
X136377855Y-82914609D02*
X136330236Y-82866990D01*
X136330236Y-82866990D02*
X136234998Y-82819371D01*
X136234998Y-82819371D02*
X136044522Y-82819371D01*
X136044522Y-82819371D02*
X135949284Y-82866990D01*
X135949284Y-82866990D02*
X135901665Y-82914609D01*
X135901665Y-82914609D02*
X135854046Y-83009847D01*
X137568331Y-82390800D02*
X136711189Y-83676514D01*
X137806427Y-82438419D02*
X138425474Y-82438419D01*
X138425474Y-82438419D02*
X138092141Y-82819371D01*
X138092141Y-82819371D02*
X138234998Y-82819371D01*
X138234998Y-82819371D02*
X138330236Y-82866990D01*
X138330236Y-82866990D02*
X138377855Y-82914609D01*
X138377855Y-82914609D02*
X138425474Y-83009847D01*
X138425474Y-83009847D02*
X138425474Y-83247942D01*
X138425474Y-83247942D02*
X138377855Y-83343180D01*
X138377855Y-83343180D02*
X138330236Y-83390800D01*
X138330236Y-83390800D02*
X138234998Y-83438419D01*
X138234998Y-83438419D02*
X137949284Y-83438419D01*
X137949284Y-83438419D02*
X137854046Y-83390800D01*
X137854046Y-83390800D02*
X137806427Y-83343180D01*
X139568331Y-82390800D02*
X138711189Y-83676514D01*
X139854046Y-82533657D02*
X139901665Y-82486038D01*
X139901665Y-82486038D02*
X139996903Y-82438419D01*
X139996903Y-82438419D02*
X140234998Y-82438419D01*
X140234998Y-82438419D02*
X140330236Y-82486038D01*
X140330236Y-82486038D02*
X140377855Y-82533657D01*
X140377855Y-82533657D02*
X140425474Y-82628895D01*
X140425474Y-82628895D02*
X140425474Y-82724133D01*
X140425474Y-82724133D02*
X140377855Y-82866990D01*
X140377855Y-82866990D02*
X139806427Y-83438419D01*
X139806427Y-83438419D02*
X140425474Y-83438419D01*
X141044522Y-82438419D02*
X141139760Y-82438419D01*
X141139760Y-82438419D02*
X141234998Y-82486038D01*
X141234998Y-82486038D02*
X141282617Y-82533657D01*
X141282617Y-82533657D02*
X141330236Y-82628895D01*
X141330236Y-82628895D02*
X141377855Y-82819371D01*
X141377855Y-82819371D02*
X141377855Y-83057466D01*
X141377855Y-83057466D02*
X141330236Y-83247942D01*
X141330236Y-83247942D02*
X141282617Y-83343180D01*
X141282617Y-83343180D02*
X141234998Y-83390800D01*
X141234998Y-83390800D02*
X141139760Y-83438419D01*
X141139760Y-83438419D02*
X141044522Y-83438419D01*
X141044522Y-83438419D02*
X140949284Y-83390800D01*
X140949284Y-83390800D02*
X140901665Y-83343180D01*
X140901665Y-83343180D02*
X140854046Y-83247942D01*
X140854046Y-83247942D02*
X140806427Y-83057466D01*
X140806427Y-83057466D02*
X140806427Y-82819371D01*
X140806427Y-82819371D02*
X140854046Y-82628895D01*
X140854046Y-82628895D02*
X140901665Y-82533657D01*
X140901665Y-82533657D02*
X140949284Y-82486038D01*
X140949284Y-82486038D02*
X141044522Y-82438419D01*
X141758808Y-82533657D02*
X141806427Y-82486038D01*
X141806427Y-82486038D02*
X141901665Y-82438419D01*
X141901665Y-82438419D02*
X142139760Y-82438419D01*
X142139760Y-82438419D02*
X142234998Y-82486038D01*
X142234998Y-82486038D02*
X142282617Y-82533657D01*
X142282617Y-82533657D02*
X142330236Y-82628895D01*
X142330236Y-82628895D02*
X142330236Y-82724133D01*
X142330236Y-82724133D02*
X142282617Y-82866990D01*
X142282617Y-82866990D02*
X141711189Y-83438419D01*
X141711189Y-83438419D02*
X142330236Y-83438419D01*
X143234998Y-82438419D02*
X142758808Y-82438419D01*
X142758808Y-82438419D02*
X142711189Y-82914609D01*
X142711189Y-82914609D02*
X142758808Y-82866990D01*
X142758808Y-82866990D02*
X142854046Y-82819371D01*
X142854046Y-82819371D02*
X143092141Y-82819371D01*
X143092141Y-82819371D02*
X143187379Y-82866990D01*
X143187379Y-82866990D02*
X143234998Y-82914609D01*
X143234998Y-82914609D02*
X143282617Y-83009847D01*
X143282617Y-83009847D02*
X143282617Y-83247942D01*
X143282617Y-83247942D02*
X143234998Y-83343180D01*
X143234998Y-83343180D02*
X143187379Y-83390800D01*
X143187379Y-83390800D02*
X143092141Y-83438419D01*
X143092141Y-83438419D02*
X142854046Y-83438419D01*
X142854046Y-83438419D02*
X142758808Y-83390800D01*
X142758808Y-83390800D02*
X142711189Y-83343180D01*
X144330237Y-82438419D02*
X144663570Y-83438419D01*
X144663570Y-83438419D02*
X144996903Y-82438419D01*
X145854046Y-83438419D02*
X145282618Y-83438419D01*
X145568332Y-83438419D02*
X145568332Y-82438419D01*
X145568332Y-82438419D02*
X145473094Y-82581276D01*
X145473094Y-82581276D02*
X145377856Y-82676514D01*
X145377856Y-82676514D02*
X145282618Y-82724133D01*
X147377856Y-82914609D02*
X147520713Y-82962228D01*
X147520713Y-82962228D02*
X147568332Y-83009847D01*
X147568332Y-83009847D02*
X147615951Y-83105085D01*
X147615951Y-83105085D02*
X147615951Y-83247942D01*
X147615951Y-83247942D02*
X147568332Y-83343180D01*
X147568332Y-83343180D02*
X147520713Y-83390800D01*
X147520713Y-83390800D02*
X147425475Y-83438419D01*
X147425475Y-83438419D02*
X147044523Y-83438419D01*
X147044523Y-83438419D02*
X147044523Y-82438419D01*
X147044523Y-82438419D02*
X147377856Y-82438419D01*
X147377856Y-82438419D02*
X147473094Y-82486038D01*
X147473094Y-82486038D02*
X147520713Y-82533657D01*
X147520713Y-82533657D02*
X147568332Y-82628895D01*
X147568332Y-82628895D02*
X147568332Y-82724133D01*
X147568332Y-82724133D02*
X147520713Y-82819371D01*
X147520713Y-82819371D02*
X147473094Y-82866990D01*
X147473094Y-82866990D02*
X147377856Y-82914609D01*
X147377856Y-82914609D02*
X147044523Y-82914609D01*
X147949285Y-82771752D02*
X148187380Y-83438419D01*
X148425475Y-82771752D02*
X148187380Y-83438419D01*
X148187380Y-83438419D02*
X148092142Y-83676514D01*
X148092142Y-83676514D02*
X148044523Y-83724133D01*
X148044523Y-83724133D02*
X147949285Y-83771752D01*
X149901666Y-82914609D02*
X150044523Y-82962228D01*
X150044523Y-82962228D02*
X150092142Y-83009847D01*
X150092142Y-83009847D02*
X150139761Y-83105085D01*
X150139761Y-83105085D02*
X150139761Y-83247942D01*
X150139761Y-83247942D02*
X150092142Y-83343180D01*
X150092142Y-83343180D02*
X150044523Y-83390800D01*
X150044523Y-83390800D02*
X149949285Y-83438419D01*
X149949285Y-83438419D02*
X149568333Y-83438419D01*
X149568333Y-83438419D02*
X149568333Y-82438419D01*
X149568333Y-82438419D02*
X149901666Y-82438419D01*
X149901666Y-82438419D02*
X149996904Y-82486038D01*
X149996904Y-82486038D02*
X150044523Y-82533657D01*
X150044523Y-82533657D02*
X150092142Y-82628895D01*
X150092142Y-82628895D02*
X150092142Y-82724133D01*
X150092142Y-82724133D02*
X150044523Y-82819371D01*
X150044523Y-82819371D02*
X149996904Y-82866990D01*
X149996904Y-82866990D02*
X149901666Y-82914609D01*
X149901666Y-82914609D02*
X149568333Y-82914609D01*
D11*
X154566619Y-75618933D02*
X155280904Y-75618933D01*
X155280904Y-75618933D02*
X155423761Y-75666552D01*
X155423761Y-75666552D02*
X155519000Y-75761790D01*
X155519000Y-75761790D02*
X155566619Y-75904647D01*
X155566619Y-75904647D02*
X155566619Y-75999885D01*
X154566619Y-75237980D02*
X154566619Y-74618933D01*
X154566619Y-74618933D02*
X154947571Y-74952266D01*
X154947571Y-74952266D02*
X154947571Y-74809409D01*
X154947571Y-74809409D02*
X154995190Y-74714171D01*
X154995190Y-74714171D02*
X155042809Y-74666552D01*
X155042809Y-74666552D02*
X155138047Y-74618933D01*
X155138047Y-74618933D02*
X155376142Y-74618933D01*
X155376142Y-74618933D02*
X155471380Y-74666552D01*
X155471380Y-74666552D02*
X155519000Y-74714171D01*
X155519000Y-74714171D02*
X155566619Y-74809409D01*
X155566619Y-74809409D02*
X155566619Y-75095123D01*
X155566619Y-75095123D02*
X155519000Y-75190361D01*
X155519000Y-75190361D02*
X155471380Y-75237980D01*
D12*
%TO.C,SW2*%
X125402200Y-71166000D02*
X125402200Y-70166000D01*
X125652200Y-79856000D02*
X125652200Y-70416000D01*
X126402200Y-70166000D02*
X125402200Y-70166000D01*
X128722200Y-73436000D02*
X128722200Y-76736000D01*
X132522200Y-73436000D02*
X128722200Y-73436000D01*
X132522200Y-73436000D02*
X132522200Y-76736000D01*
X132522200Y-76736000D02*
X128722200Y-76736000D01*
X135692200Y-70416000D02*
X125652200Y-70416000D01*
X135692200Y-79856000D02*
X125652200Y-79856000D01*
X135692200Y-79856000D02*
X135692200Y-70416000D01*
%TO.C,J3*%
X136611800Y-78385600D02*
X136611800Y-72185600D01*
X145511800Y-78385600D02*
X136611800Y-78385600D01*
X151311800Y-78385600D02*
X148111800Y-78385600D01*
X151311800Y-77885600D02*
X151311800Y-78385600D01*
X153811800Y-77885600D02*
X151311800Y-77885600D01*
X151311800Y-72685600D02*
X153811800Y-72685600D01*
X153811800Y-72685600D02*
X153811800Y-77885600D01*
X136611800Y-72185600D02*
X137811800Y-72185600D01*
X141011800Y-72185600D02*
X147511800Y-72185600D01*
X147511800Y-72185600D02*
X147511800Y-70185600D01*
X150111800Y-72185600D02*
X151311800Y-72185600D01*
X150111800Y-72185600D02*
X150111800Y-70185600D01*
X151311800Y-72185600D02*
X151311800Y-72685600D01*
%TO.C,J2*%
X124927800Y-77900600D02*
X124927800Y-84100600D01*
X116027800Y-77900600D02*
X124927800Y-77900600D01*
X110227800Y-77900600D02*
X113427800Y-77900600D01*
X110227800Y-78400600D02*
X110227800Y-77900600D01*
X107727800Y-78400600D02*
X110227800Y-78400600D01*
X110227800Y-83600600D02*
X107727800Y-83600600D01*
X107727800Y-83600600D02*
X107727800Y-78400600D01*
X124927800Y-84100600D02*
X123727800Y-84100600D01*
X120527800Y-84100600D02*
X114027800Y-84100600D01*
X114027800Y-84100600D02*
X114027800Y-86100600D01*
X111427800Y-84100600D02*
X110227800Y-84100600D01*
X111427800Y-84100600D02*
X111427800Y-86100600D01*
X110227800Y-84100600D02*
X110227800Y-83600600D01*
%TO.C,J1*%
X124897800Y-66479000D02*
X124897800Y-72679000D01*
X115997800Y-66479000D02*
X124897800Y-66479000D01*
X110197800Y-66479000D02*
X113397800Y-66479000D01*
X110197800Y-66979000D02*
X110197800Y-66479000D01*
X107697800Y-66979000D02*
X110197800Y-66979000D01*
X110197800Y-72179000D02*
X107697800Y-72179000D01*
X107697800Y-72179000D02*
X107697800Y-66979000D01*
X124897800Y-72679000D02*
X123697800Y-72679000D01*
X120497800Y-72679000D02*
X113997800Y-72679000D01*
X113997800Y-72679000D02*
X113997800Y-74679000D01*
X111397800Y-72679000D02*
X110197800Y-72679000D01*
X111397800Y-72679000D02*
X111397800Y-74679000D01*
X110197800Y-72679000D02*
X110197800Y-72179000D01*
D13*
%TO.C,G\u002A\u002A\u002A*%
G36*
X144526158Y-65402160D02*
G01*
X144526158Y-65765017D01*
X144636593Y-65765017D01*
X144693243Y-65767101D01*
X144732388Y-65772688D01*
X144747028Y-65780778D01*
X144747028Y-65780793D01*
X144761398Y-65789197D01*
X144798937Y-65794894D01*
X144841686Y-65796570D01*
X144936344Y-65796570D01*
X144936344Y-66017439D01*
X144936344Y-66238309D01*
X145078332Y-66238309D01*
X145220320Y-66238309D01*
X145220320Y-66175203D01*
X145217674Y-66133917D01*
X145206979Y-66115670D01*
X145188767Y-66112098D01*
X145178485Y-66110942D01*
X145170719Y-66104891D01*
X145165116Y-66090067D01*
X145161325Y-66062591D01*
X145158991Y-66018585D01*
X145157763Y-65954172D01*
X145157289Y-65865473D01*
X145157214Y-65765017D01*
X145157214Y-65417936D01*
X145362307Y-65417936D01*
X145567400Y-65417936D01*
X145567400Y-65607253D01*
X145567400Y-65796570D01*
X145718403Y-65796570D01*
X145798801Y-65794927D01*
X145852390Y-65789602D01*
X145883761Y-65779998D01*
X145891943Y-65774032D01*
X145903037Y-65753098D01*
X145910106Y-65713740D01*
X145913712Y-65651248D01*
X145914481Y-65584715D01*
X145914481Y-65417936D01*
X146103798Y-65417936D01*
X146293115Y-65417936D01*
X146293115Y-65607253D01*
X146291851Y-65690355D01*
X146288263Y-65751840D01*
X146282649Y-65788099D01*
X146277338Y-65796570D01*
X146270009Y-65811569D01*
X146264711Y-65853536D01*
X146261897Y-65917924D01*
X146261562Y-65954334D01*
X146261562Y-66112098D01*
X146419326Y-66112098D01*
X146577090Y-66112098D01*
X146577090Y-66222532D01*
X146579174Y-66279183D01*
X146584761Y-66318328D01*
X146592851Y-66332967D01*
X146592866Y-66332967D01*
X146599153Y-66317617D01*
X146603971Y-66273217D01*
X146607166Y-66202244D01*
X146608584Y-66107172D01*
X146608643Y-66080545D01*
X146608643Y-65828122D01*
X146750630Y-65828122D01*
X146892618Y-65828122D01*
X146892618Y-65449489D01*
X146892618Y-65070855D01*
X148486034Y-65070855D01*
X150079450Y-65070855D01*
X150079450Y-65260172D01*
X150079450Y-65449489D01*
X149905910Y-65449489D01*
X149732369Y-65449489D01*
X149732369Y-65607253D01*
X149732369Y-65765017D01*
X149527276Y-65765017D01*
X149322183Y-65765017D01*
X149322183Y-65938557D01*
X149322183Y-66112098D01*
X149180195Y-66112098D01*
X149038208Y-66112098D01*
X149038208Y-66285638D01*
X149038208Y-66459178D01*
X148848891Y-66459178D01*
X148659574Y-66459178D01*
X148659574Y-66964023D01*
X148659574Y-67468868D01*
X148296717Y-67468868D01*
X147933860Y-67468868D01*
X147933860Y-67405762D01*
X147933860Y-67342657D01*
X147870754Y-67342657D01*
X147807649Y-67342657D01*
X147807649Y-67405762D01*
X147807649Y-67468868D01*
X147712990Y-67468868D01*
X147618332Y-67468868D01*
X147618332Y-67673961D01*
X147618332Y-67879054D01*
X147271251Y-67879054D01*
X146924170Y-67879054D01*
X146924170Y-68052595D01*
X146924170Y-68226135D01*
X146734854Y-68226135D01*
X146545537Y-68226135D01*
X146545537Y-68147253D01*
X146545537Y-68068371D01*
X146387773Y-68068371D01*
X146230009Y-68068371D01*
X146230009Y-68305017D01*
X146230009Y-68541663D01*
X146088021Y-68541663D01*
X145946034Y-68541663D01*
X145946034Y-68715203D01*
X145946034Y-68888744D01*
X145756717Y-68888744D01*
X145567400Y-68888744D01*
X145567400Y-68699427D01*
X145567400Y-68510110D01*
X145393860Y-68510110D01*
X145220320Y-68510110D01*
X145220320Y-68336570D01*
X145220320Y-68163029D01*
X145062556Y-68163029D01*
X144989266Y-68164529D01*
X144936279Y-68168726D01*
X144908140Y-68175165D01*
X144904792Y-68178806D01*
X144889634Y-68185731D01*
X144846568Y-68190855D01*
X144779200Y-68193876D01*
X144715475Y-68194582D01*
X144526158Y-68194582D01*
X144526158Y-68005265D01*
X144526158Y-67815949D01*
X144368394Y-67815949D01*
X144295105Y-67817448D01*
X144242118Y-67821645D01*
X144213979Y-67828084D01*
X144210630Y-67831725D01*
X144195473Y-67838650D01*
X144152407Y-67843774D01*
X144085039Y-67846796D01*
X144021313Y-67847501D01*
X143831997Y-67847501D01*
X143831997Y-67658185D01*
X143831997Y-67468868D01*
X143658456Y-67468868D01*
X143580154Y-67470239D01*
X143522852Y-67474109D01*
X143490584Y-67480111D01*
X143484916Y-67484644D01*
X143469417Y-67490241D01*
X143423992Y-67494689D01*
X143350250Y-67497916D01*
X143249800Y-67499848D01*
X143137835Y-67500421D01*
X142790754Y-67500421D01*
X142790754Y-66964023D01*
X142790754Y-66427626D01*
X142601438Y-66427626D01*
X142412121Y-66427626D01*
X142412121Y-66269862D01*
X142412121Y-66112098D01*
X142254357Y-66112098D01*
X142096593Y-66112098D01*
X142096593Y-65938557D01*
X142096593Y-65765017D01*
X141907276Y-65765017D01*
X141717959Y-65765017D01*
X141717959Y-65591477D01*
X141717959Y-65417936D01*
X141575972Y-65417936D01*
X141433984Y-65417936D01*
X141433984Y-65228619D01*
X141433984Y-65039303D01*
X142980071Y-65039303D01*
X144526158Y-65039303D01*
X144526158Y-65402160D01*
G37*
%TD*%
M02*
