%TF.GenerationSoftware,KiCad,Pcbnew,8.0.8*%
%TF.CreationDate,2025-03-16T01:19:43+08:00*%
%TF.ProjectId,TwoWayAudioSwitch-V1,54776f57-6179-4417-9564-696f53776974,rev?*%
%TF.SameCoordinates,Original*%
%TF.FileFunction,Copper,L2,Bot*%
%TF.FilePolarity,Positive*%
%FSLAX46Y46*%
G04 Gerber Fmt 4.6, Leading zero omitted, Abs format (unit mm)*
G04 Created by KiCad (PCBNEW 8.0.8) date 2025-03-16 01:19:43*
%MOMM*%
%LPD*%
G01*
G04 APERTURE LIST*
%TA.AperFunction,ComponentPad*%
%ADD10R,1.800000X1.800000*%
%TD*%
%TA.AperFunction,ComponentPad*%
%ADD11C,1.800000*%
%TD*%
%TA.AperFunction,ViaPad*%
%ADD12C,0.600000*%
%TD*%
%TA.AperFunction,Conductor*%
%ADD13C,1.000000*%
%TD*%
G04 APERTURE END LIST*
D10*
%TO.P,SW2,1,A*%
%TO.N,Net-(J2-PadT)*%
X128172200Y-72136000D03*
D11*
%TO.P,SW2,2,B*%
%TO.N,Net-(J3-PadT)*%
X130672200Y-72136000D03*
%TO.P,SW2,3,C*%
%TO.N,Net-(J1-PadT)*%
X133172200Y-72136000D03*
%TO.P,SW2,4,A*%
%TO.N,Net-(J2-PadR)*%
X128172200Y-78136000D03*
%TO.P,SW2,5,B*%
%TO.N,Net-(J3-PadR)*%
X130672200Y-78136000D03*
%TO.P,SW2,6,C*%
%TO.N,Net-(J1-PadR)*%
X133172200Y-78136000D03*
%TD*%
D12*
%TO.N,Net-(J1-PadS)*%
X148811800Y-71585600D03*
X112697800Y-73279000D03*
%TO.N,Net-(J3-PadT)*%
X139420600Y-71577200D03*
%TO.N,Net-(J2-PadR)*%
X114731800Y-77292200D03*
%TD*%
D13*
%TO.N,Net-(J1-PadS)*%
X148811800Y-69741600D02*
X148811800Y-71585600D01*
X146532600Y-67462400D02*
X148811800Y-69741600D01*
X119710200Y-67462400D02*
X146532600Y-67462400D01*
X117881400Y-71374000D02*
X117881400Y-69291200D01*
X117881400Y-69291200D02*
X119710200Y-67462400D01*
X115976400Y-73279000D02*
X117881400Y-71374000D01*
X112697800Y-73279000D02*
X115976400Y-73279000D01*
%TO.N,Net-(J3-PadT)*%
X130672200Y-73903200D02*
X130672200Y-72136000D01*
X138480800Y-74549000D02*
X131318000Y-74549000D01*
X131318000Y-74549000D02*
X130672200Y-73903200D01*
X139420600Y-71577200D02*
X139420600Y-73609200D01*
X139420600Y-73609200D02*
X138480800Y-74549000D01*
%TO.N,Net-(J2-PadR)*%
X122967000Y-78136000D02*
X128172200Y-78136000D01*
X122123200Y-77292200D02*
X122967000Y-78136000D01*
X114731800Y-77292200D02*
X122123200Y-77292200D01*
%TD*%
M02*
