%TF.GenerationSoftware,KiCad,Pcbnew,8.0.8*%
%TF.CreationDate,2025-03-16T01:19:41+08:00*%
%TF.ProjectId,TwoWayAudioSwitch-V1,54776f57-6179-4417-9564-696f53776974,rev?*%
%TF.SameCoordinates,Original*%
%TF.FileFunction,Drillmap*%
%TF.FilePolarity,Positive*%
%FSLAX45Y45*%
G04 Gerber Fmt 4.5, Leading zero omitted, Abs format (unit mm)*
G04 Created by KiCad (PCBNEW 8.0.8) date 2025-03-16 01:19:41*
%MOMM*%
%LPD*%
G01*
G04 APERTURE LIST*
%ADD10C,0.050000*%
%ADD11C,0.200000*%
%ADD12C,0.100000*%
G04 APERTURE END LIST*
D10*
X11017250Y-6301740D02*
X15129510Y-6301740D01*
X15129510Y-8742680D01*
X11017250Y-8742680D01*
X11017250Y-6301740D01*
D11*
D12*
X11254780Y-7312900D02*
X11284780Y-7342900D01*
X11284780Y-7312900D02*
X11254780Y-7342900D01*
X11458180Y-7714220D02*
X11488180Y-7744220D01*
X11488180Y-7714220D02*
X11458180Y-7744220D01*
X13927060Y-7142720D02*
X13957060Y-7172720D01*
X13957060Y-7142720D02*
X13927060Y-7172720D01*
X14866180Y-7143560D02*
X14896180Y-7173560D01*
X14896180Y-7143560D02*
X14866180Y-7173560D01*
X12862220Y-7213600D02*
G75*
G02*
X12772220Y-7213600I-45000J0D01*
G01*
X12772220Y-7213600D02*
G75*
G02*
X12862220Y-7213600I45000J0D01*
G01*
X12862220Y-7813600D02*
G75*
G02*
X12772220Y-7813600I-45000J0D01*
G01*
X12772220Y-7813600D02*
G75*
G02*
X12862220Y-7813600I45000J0D01*
G01*
X13112220Y-7213600D02*
G75*
G02*
X13022220Y-7213600I-45000J0D01*
G01*
X13022220Y-7213600D02*
G75*
G02*
X13112220Y-7213600I45000J0D01*
G01*
X13112220Y-7813600D02*
G75*
G02*
X13022220Y-7813600I-45000J0D01*
G01*
X13022220Y-7813600D02*
G75*
G02*
X13112220Y-7813600I45000J0D01*
G01*
X13362220Y-7213600D02*
G75*
G02*
X13272220Y-7213600I-45000J0D01*
G01*
X13272220Y-7213600D02*
G75*
G02*
X13362220Y-7213600I45000J0D01*
G01*
X13362220Y-7813600D02*
G75*
G02*
X13272220Y-7813600I-45000J0D01*
G01*
X13272220Y-7813600D02*
G75*
G02*
X13362220Y-7813600I45000J0D01*
G01*
D11*
X11275527Y-9056664D02*
X11275527Y-8856664D01*
X11275527Y-8856664D02*
X11323146Y-8856664D01*
X11323146Y-8856664D02*
X11351717Y-8866188D01*
X11351717Y-8866188D02*
X11370765Y-8885235D01*
X11370765Y-8885235D02*
X11380289Y-8904283D01*
X11380289Y-8904283D02*
X11389812Y-8942378D01*
X11389812Y-8942378D02*
X11389812Y-8970950D01*
X11389812Y-8970950D02*
X11380289Y-9009045D01*
X11380289Y-9009045D02*
X11370765Y-9028092D01*
X11370765Y-9028092D02*
X11351717Y-9047140D01*
X11351717Y-9047140D02*
X11323146Y-9056664D01*
X11323146Y-9056664D02*
X11275527Y-9056664D01*
X11475527Y-9056664D02*
X11475527Y-8923330D01*
X11475527Y-8961426D02*
X11485051Y-8942378D01*
X11485051Y-8942378D02*
X11494574Y-8932854D01*
X11494574Y-8932854D02*
X11513622Y-8923330D01*
X11513622Y-8923330D02*
X11532670Y-8923330D01*
X11599336Y-9056664D02*
X11599336Y-8923330D01*
X11599336Y-8856664D02*
X11589812Y-8866188D01*
X11589812Y-8866188D02*
X11599336Y-8875711D01*
X11599336Y-8875711D02*
X11608860Y-8866188D01*
X11608860Y-8866188D02*
X11599336Y-8856664D01*
X11599336Y-8856664D02*
X11599336Y-8875711D01*
X11723146Y-9056664D02*
X11704098Y-9047140D01*
X11704098Y-9047140D02*
X11694574Y-9028092D01*
X11694574Y-9028092D02*
X11694574Y-8856664D01*
X11827908Y-9056664D02*
X11808860Y-9047140D01*
X11808860Y-9047140D02*
X11799336Y-9028092D01*
X11799336Y-9028092D02*
X11799336Y-8856664D01*
X12056479Y-9056664D02*
X12056479Y-8856664D01*
X12056479Y-8856664D02*
X12123146Y-8999521D01*
X12123146Y-8999521D02*
X12189812Y-8856664D01*
X12189812Y-8856664D02*
X12189812Y-9056664D01*
X12370765Y-9056664D02*
X12370765Y-8951902D01*
X12370765Y-8951902D02*
X12361241Y-8932854D01*
X12361241Y-8932854D02*
X12342193Y-8923330D01*
X12342193Y-8923330D02*
X12304098Y-8923330D01*
X12304098Y-8923330D02*
X12285051Y-8932854D01*
X12370765Y-9047140D02*
X12351717Y-9056664D01*
X12351717Y-9056664D02*
X12304098Y-9056664D01*
X12304098Y-9056664D02*
X12285051Y-9047140D01*
X12285051Y-9047140D02*
X12275527Y-9028092D01*
X12275527Y-9028092D02*
X12275527Y-9009045D01*
X12275527Y-9009045D02*
X12285051Y-8989997D01*
X12285051Y-8989997D02*
X12304098Y-8980473D01*
X12304098Y-8980473D02*
X12351717Y-8980473D01*
X12351717Y-8980473D02*
X12370765Y-8970950D01*
X12466003Y-8923330D02*
X12466003Y-9123330D01*
X12466003Y-8932854D02*
X12485051Y-8923330D01*
X12485051Y-8923330D02*
X12523146Y-8923330D01*
X12523146Y-8923330D02*
X12542193Y-8932854D01*
X12542193Y-8932854D02*
X12551717Y-8942378D01*
X12551717Y-8942378D02*
X12561241Y-8961426D01*
X12561241Y-8961426D02*
X12561241Y-9018569D01*
X12561241Y-9018569D02*
X12551717Y-9037616D01*
X12551717Y-9037616D02*
X12542193Y-9047140D01*
X12542193Y-9047140D02*
X12523146Y-9056664D01*
X12523146Y-9056664D02*
X12485051Y-9056664D01*
X12485051Y-9056664D02*
X12466003Y-9047140D01*
X12646955Y-9037616D02*
X12656479Y-9047140D01*
X12656479Y-9047140D02*
X12646955Y-9056664D01*
X12646955Y-9056664D02*
X12637432Y-9047140D01*
X12637432Y-9047140D02*
X12646955Y-9037616D01*
X12646955Y-9037616D02*
X12646955Y-9056664D01*
X12646955Y-8932854D02*
X12656479Y-8942378D01*
X12656479Y-8942378D02*
X12646955Y-8951902D01*
X12646955Y-8951902D02*
X12637432Y-8942378D01*
X12637432Y-8942378D02*
X12646955Y-8932854D01*
X12646955Y-8932854D02*
X12646955Y-8951902D01*
D12*
X10984750Y-9370180D02*
X11014750Y-9400180D01*
X11014750Y-9370180D02*
X10984750Y-9400180D01*
D11*
X11313622Y-9276664D02*
X11332670Y-9276664D01*
X11332670Y-9276664D02*
X11351717Y-9286188D01*
X11351717Y-9286188D02*
X11361241Y-9295711D01*
X11361241Y-9295711D02*
X11370765Y-9314759D01*
X11370765Y-9314759D02*
X11380289Y-9352854D01*
X11380289Y-9352854D02*
X11380289Y-9400473D01*
X11380289Y-9400473D02*
X11370765Y-9438569D01*
X11370765Y-9438569D02*
X11361241Y-9457616D01*
X11361241Y-9457616D02*
X11351717Y-9467140D01*
X11351717Y-9467140D02*
X11332670Y-9476664D01*
X11332670Y-9476664D02*
X11313622Y-9476664D01*
X11313622Y-9476664D02*
X11294574Y-9467140D01*
X11294574Y-9467140D02*
X11285051Y-9457616D01*
X11285051Y-9457616D02*
X11275527Y-9438569D01*
X11275527Y-9438569D02*
X11266003Y-9400473D01*
X11266003Y-9400473D02*
X11266003Y-9352854D01*
X11266003Y-9352854D02*
X11275527Y-9314759D01*
X11275527Y-9314759D02*
X11285051Y-9295711D01*
X11285051Y-9295711D02*
X11294574Y-9286188D01*
X11294574Y-9286188D02*
X11313622Y-9276664D01*
X11466003Y-9457616D02*
X11475527Y-9467140D01*
X11475527Y-9467140D02*
X11466003Y-9476664D01*
X11466003Y-9476664D02*
X11456479Y-9467140D01*
X11456479Y-9467140D02*
X11466003Y-9457616D01*
X11466003Y-9457616D02*
X11466003Y-9476664D01*
X11542193Y-9276664D02*
X11666003Y-9276664D01*
X11666003Y-9276664D02*
X11599336Y-9352854D01*
X11599336Y-9352854D02*
X11627908Y-9352854D01*
X11627908Y-9352854D02*
X11646955Y-9362378D01*
X11646955Y-9362378D02*
X11656479Y-9371902D01*
X11656479Y-9371902D02*
X11666003Y-9390950D01*
X11666003Y-9390950D02*
X11666003Y-9438569D01*
X11666003Y-9438569D02*
X11656479Y-9457616D01*
X11656479Y-9457616D02*
X11646955Y-9467140D01*
X11646955Y-9467140D02*
X11627908Y-9476664D01*
X11627908Y-9476664D02*
X11570765Y-9476664D01*
X11570765Y-9476664D02*
X11551717Y-9467140D01*
X11551717Y-9467140D02*
X11542193Y-9457616D01*
X11789812Y-9276664D02*
X11808860Y-9276664D01*
X11808860Y-9276664D02*
X11827908Y-9286188D01*
X11827908Y-9286188D02*
X11837432Y-9295711D01*
X11837432Y-9295711D02*
X11846955Y-9314759D01*
X11846955Y-9314759D02*
X11856479Y-9352854D01*
X11856479Y-9352854D02*
X11856479Y-9400473D01*
X11856479Y-9400473D02*
X11846955Y-9438569D01*
X11846955Y-9438569D02*
X11837432Y-9457616D01*
X11837432Y-9457616D02*
X11827908Y-9467140D01*
X11827908Y-9467140D02*
X11808860Y-9476664D01*
X11808860Y-9476664D02*
X11789812Y-9476664D01*
X11789812Y-9476664D02*
X11770765Y-9467140D01*
X11770765Y-9467140D02*
X11761241Y-9457616D01*
X11761241Y-9457616D02*
X11751717Y-9438569D01*
X11751717Y-9438569D02*
X11742193Y-9400473D01*
X11742193Y-9400473D02*
X11742193Y-9352854D01*
X11742193Y-9352854D02*
X11751717Y-9314759D01*
X11751717Y-9314759D02*
X11761241Y-9295711D01*
X11761241Y-9295711D02*
X11770765Y-9286188D01*
X11770765Y-9286188D02*
X11789812Y-9276664D01*
X11980289Y-9276664D02*
X11999336Y-9276664D01*
X11999336Y-9276664D02*
X12018384Y-9286188D01*
X12018384Y-9286188D02*
X12027908Y-9295711D01*
X12027908Y-9295711D02*
X12037432Y-9314759D01*
X12037432Y-9314759D02*
X12046955Y-9352854D01*
X12046955Y-9352854D02*
X12046955Y-9400473D01*
X12046955Y-9400473D02*
X12037432Y-9438569D01*
X12037432Y-9438569D02*
X12027908Y-9457616D01*
X12027908Y-9457616D02*
X12018384Y-9467140D01*
X12018384Y-9467140D02*
X11999336Y-9476664D01*
X11999336Y-9476664D02*
X11980289Y-9476664D01*
X11980289Y-9476664D02*
X11961241Y-9467140D01*
X11961241Y-9467140D02*
X11951717Y-9457616D01*
X11951717Y-9457616D02*
X11942193Y-9438569D01*
X11942193Y-9438569D02*
X11932670Y-9400473D01*
X11932670Y-9400473D02*
X11932670Y-9352854D01*
X11932670Y-9352854D02*
X11942193Y-9314759D01*
X11942193Y-9314759D02*
X11951717Y-9295711D01*
X11951717Y-9295711D02*
X11961241Y-9286188D01*
X11961241Y-9286188D02*
X11980289Y-9276664D01*
X12132670Y-9476664D02*
X12132670Y-9343330D01*
X12132670Y-9362378D02*
X12142193Y-9352854D01*
X12142193Y-9352854D02*
X12161241Y-9343330D01*
X12161241Y-9343330D02*
X12189813Y-9343330D01*
X12189813Y-9343330D02*
X12208860Y-9352854D01*
X12208860Y-9352854D02*
X12218384Y-9371902D01*
X12218384Y-9371902D02*
X12218384Y-9476664D01*
X12218384Y-9371902D02*
X12227908Y-9352854D01*
X12227908Y-9352854D02*
X12246955Y-9343330D01*
X12246955Y-9343330D02*
X12275527Y-9343330D01*
X12275527Y-9343330D02*
X12294574Y-9352854D01*
X12294574Y-9352854D02*
X12304098Y-9371902D01*
X12304098Y-9371902D02*
X12304098Y-9476664D01*
X12399336Y-9476664D02*
X12399336Y-9343330D01*
X12399336Y-9362378D02*
X12408860Y-9352854D01*
X12408860Y-9352854D02*
X12427908Y-9343330D01*
X12427908Y-9343330D02*
X12456479Y-9343330D01*
X12456479Y-9343330D02*
X12475527Y-9352854D01*
X12475527Y-9352854D02*
X12485051Y-9371902D01*
X12485051Y-9371902D02*
X12485051Y-9476664D01*
X12485051Y-9371902D02*
X12494574Y-9352854D01*
X12494574Y-9352854D02*
X12513622Y-9343330D01*
X12513622Y-9343330D02*
X12542193Y-9343330D01*
X12542193Y-9343330D02*
X12561241Y-9352854D01*
X12561241Y-9352854D02*
X12570765Y-9371902D01*
X12570765Y-9371902D02*
X12570765Y-9476664D01*
X12961241Y-9267140D02*
X12789813Y-9524283D01*
X13218384Y-9276664D02*
X13237432Y-9276664D01*
X13237432Y-9276664D02*
X13256479Y-9286188D01*
X13256479Y-9286188D02*
X13266003Y-9295711D01*
X13266003Y-9295711D02*
X13275527Y-9314759D01*
X13275527Y-9314759D02*
X13285051Y-9352854D01*
X13285051Y-9352854D02*
X13285051Y-9400473D01*
X13285051Y-9400473D02*
X13275527Y-9438569D01*
X13275527Y-9438569D02*
X13266003Y-9457616D01*
X13266003Y-9457616D02*
X13256479Y-9467140D01*
X13256479Y-9467140D02*
X13237432Y-9476664D01*
X13237432Y-9476664D02*
X13218384Y-9476664D01*
X13218384Y-9476664D02*
X13199336Y-9467140D01*
X13199336Y-9467140D02*
X13189813Y-9457616D01*
X13189813Y-9457616D02*
X13180289Y-9438569D01*
X13180289Y-9438569D02*
X13170765Y-9400473D01*
X13170765Y-9400473D02*
X13170765Y-9352854D01*
X13170765Y-9352854D02*
X13180289Y-9314759D01*
X13180289Y-9314759D02*
X13189813Y-9295711D01*
X13189813Y-9295711D02*
X13199336Y-9286188D01*
X13199336Y-9286188D02*
X13218384Y-9276664D01*
X13370765Y-9457616D02*
X13380289Y-9467140D01*
X13380289Y-9467140D02*
X13370765Y-9476664D01*
X13370765Y-9476664D02*
X13361241Y-9467140D01*
X13361241Y-9467140D02*
X13370765Y-9457616D01*
X13370765Y-9457616D02*
X13370765Y-9476664D01*
X13504098Y-9276664D02*
X13523146Y-9276664D01*
X13523146Y-9276664D02*
X13542194Y-9286188D01*
X13542194Y-9286188D02*
X13551717Y-9295711D01*
X13551717Y-9295711D02*
X13561241Y-9314759D01*
X13561241Y-9314759D02*
X13570765Y-9352854D01*
X13570765Y-9352854D02*
X13570765Y-9400473D01*
X13570765Y-9400473D02*
X13561241Y-9438569D01*
X13561241Y-9438569D02*
X13551717Y-9457616D01*
X13551717Y-9457616D02*
X13542194Y-9467140D01*
X13542194Y-9467140D02*
X13523146Y-9476664D01*
X13523146Y-9476664D02*
X13504098Y-9476664D01*
X13504098Y-9476664D02*
X13485051Y-9467140D01*
X13485051Y-9467140D02*
X13475527Y-9457616D01*
X13475527Y-9457616D02*
X13466003Y-9438569D01*
X13466003Y-9438569D02*
X13456479Y-9400473D01*
X13456479Y-9400473D02*
X13456479Y-9352854D01*
X13456479Y-9352854D02*
X13466003Y-9314759D01*
X13466003Y-9314759D02*
X13475527Y-9295711D01*
X13475527Y-9295711D02*
X13485051Y-9286188D01*
X13485051Y-9286188D02*
X13504098Y-9276664D01*
X13761241Y-9476664D02*
X13646956Y-9476664D01*
X13704098Y-9476664D02*
X13704098Y-9276664D01*
X13704098Y-9276664D02*
X13685051Y-9305235D01*
X13685051Y-9305235D02*
X13666003Y-9324283D01*
X13666003Y-9324283D02*
X13646956Y-9333807D01*
X13951717Y-9476664D02*
X13837432Y-9476664D01*
X13894575Y-9476664D02*
X13894575Y-9276664D01*
X13894575Y-9276664D02*
X13875527Y-9305235D01*
X13875527Y-9305235D02*
X13856479Y-9324283D01*
X13856479Y-9324283D02*
X13837432Y-9333807D01*
X14066003Y-9362378D02*
X14046956Y-9352854D01*
X14046956Y-9352854D02*
X14037432Y-9343330D01*
X14037432Y-9343330D02*
X14027908Y-9324283D01*
X14027908Y-9324283D02*
X14027908Y-9314759D01*
X14027908Y-9314759D02*
X14037432Y-9295711D01*
X14037432Y-9295711D02*
X14046956Y-9286188D01*
X14046956Y-9286188D02*
X14066003Y-9276664D01*
X14066003Y-9276664D02*
X14104098Y-9276664D01*
X14104098Y-9276664D02*
X14123146Y-9286188D01*
X14123146Y-9286188D02*
X14132670Y-9295711D01*
X14132670Y-9295711D02*
X14142194Y-9314759D01*
X14142194Y-9314759D02*
X14142194Y-9324283D01*
X14142194Y-9324283D02*
X14132670Y-9343330D01*
X14132670Y-9343330D02*
X14123146Y-9352854D01*
X14123146Y-9352854D02*
X14104098Y-9362378D01*
X14104098Y-9362378D02*
X14066003Y-9362378D01*
X14066003Y-9362378D02*
X14046956Y-9371902D01*
X14046956Y-9371902D02*
X14037432Y-9381426D01*
X14037432Y-9381426D02*
X14027908Y-9400473D01*
X14027908Y-9400473D02*
X14027908Y-9438569D01*
X14027908Y-9438569D02*
X14037432Y-9457616D01*
X14037432Y-9457616D02*
X14046956Y-9467140D01*
X14046956Y-9467140D02*
X14066003Y-9476664D01*
X14066003Y-9476664D02*
X14104098Y-9476664D01*
X14104098Y-9476664D02*
X14123146Y-9467140D01*
X14123146Y-9467140D02*
X14132670Y-9457616D01*
X14132670Y-9457616D02*
X14142194Y-9438569D01*
X14142194Y-9438569D02*
X14142194Y-9400473D01*
X14142194Y-9400473D02*
X14132670Y-9381426D01*
X14132670Y-9381426D02*
X14123146Y-9371902D01*
X14123146Y-9371902D02*
X14104098Y-9362378D01*
X14218384Y-9276664D02*
X14218384Y-9314759D01*
X14294575Y-9276664D02*
X14294575Y-9314759D01*
X14589813Y-9552854D02*
X14580289Y-9543330D01*
X14580289Y-9543330D02*
X14561241Y-9514759D01*
X14561241Y-9514759D02*
X14551718Y-9495711D01*
X14551718Y-9495711D02*
X14542194Y-9467140D01*
X14542194Y-9467140D02*
X14532670Y-9419521D01*
X14532670Y-9419521D02*
X14532670Y-9381426D01*
X14532670Y-9381426D02*
X14542194Y-9333807D01*
X14542194Y-9333807D02*
X14551718Y-9305235D01*
X14551718Y-9305235D02*
X14561241Y-9286188D01*
X14561241Y-9286188D02*
X14580289Y-9257616D01*
X14580289Y-9257616D02*
X14589813Y-9248092D01*
X14751718Y-9343330D02*
X14751718Y-9476664D01*
X14704098Y-9267140D02*
X14656479Y-9409997D01*
X14656479Y-9409997D02*
X14780289Y-9409997D01*
X15008860Y-9476664D02*
X15008860Y-9276664D01*
X15094575Y-9476664D02*
X15094575Y-9371902D01*
X15094575Y-9371902D02*
X15085051Y-9352854D01*
X15085051Y-9352854D02*
X15066003Y-9343330D01*
X15066003Y-9343330D02*
X15037432Y-9343330D01*
X15037432Y-9343330D02*
X15018384Y-9352854D01*
X15018384Y-9352854D02*
X15008860Y-9362378D01*
X15218384Y-9476664D02*
X15199337Y-9467140D01*
X15199337Y-9467140D02*
X15189813Y-9457616D01*
X15189813Y-9457616D02*
X15180289Y-9438569D01*
X15180289Y-9438569D02*
X15180289Y-9381426D01*
X15180289Y-9381426D02*
X15189813Y-9362378D01*
X15189813Y-9362378D02*
X15199337Y-9352854D01*
X15199337Y-9352854D02*
X15218384Y-9343330D01*
X15218384Y-9343330D02*
X15246956Y-9343330D01*
X15246956Y-9343330D02*
X15266003Y-9352854D01*
X15266003Y-9352854D02*
X15275527Y-9362378D01*
X15275527Y-9362378D02*
X15285051Y-9381426D01*
X15285051Y-9381426D02*
X15285051Y-9438569D01*
X15285051Y-9438569D02*
X15275527Y-9457616D01*
X15275527Y-9457616D02*
X15266003Y-9467140D01*
X15266003Y-9467140D02*
X15246956Y-9476664D01*
X15246956Y-9476664D02*
X15218384Y-9476664D01*
X15399337Y-9476664D02*
X15380289Y-9467140D01*
X15380289Y-9467140D02*
X15370765Y-9448092D01*
X15370765Y-9448092D02*
X15370765Y-9276664D01*
X15551718Y-9467140D02*
X15532670Y-9476664D01*
X15532670Y-9476664D02*
X15494575Y-9476664D01*
X15494575Y-9476664D02*
X15475527Y-9467140D01*
X15475527Y-9467140D02*
X15466003Y-9448092D01*
X15466003Y-9448092D02*
X15466003Y-9371902D01*
X15466003Y-9371902D02*
X15475527Y-9352854D01*
X15475527Y-9352854D02*
X15494575Y-9343330D01*
X15494575Y-9343330D02*
X15532670Y-9343330D01*
X15532670Y-9343330D02*
X15551718Y-9352854D01*
X15551718Y-9352854D02*
X15561241Y-9371902D01*
X15561241Y-9371902D02*
X15561241Y-9390950D01*
X15561241Y-9390950D02*
X15466003Y-9409997D01*
X15637432Y-9467140D02*
X15656480Y-9476664D01*
X15656480Y-9476664D02*
X15694575Y-9476664D01*
X15694575Y-9476664D02*
X15713622Y-9467140D01*
X15713622Y-9467140D02*
X15723146Y-9448092D01*
X15723146Y-9448092D02*
X15723146Y-9438569D01*
X15723146Y-9438569D02*
X15713622Y-9419521D01*
X15713622Y-9419521D02*
X15694575Y-9409997D01*
X15694575Y-9409997D02*
X15666003Y-9409997D01*
X15666003Y-9409997D02*
X15646956Y-9400473D01*
X15646956Y-9400473D02*
X15637432Y-9381426D01*
X15637432Y-9381426D02*
X15637432Y-9371902D01*
X15637432Y-9371902D02*
X15646956Y-9352854D01*
X15646956Y-9352854D02*
X15666003Y-9343330D01*
X15666003Y-9343330D02*
X15694575Y-9343330D01*
X15694575Y-9343330D02*
X15713622Y-9352854D01*
X15789813Y-9552854D02*
X15799337Y-9543330D01*
X15799337Y-9543330D02*
X15818384Y-9514759D01*
X15818384Y-9514759D02*
X15827908Y-9495711D01*
X15827908Y-9495711D02*
X15837432Y-9467140D01*
X15837432Y-9467140D02*
X15846956Y-9419521D01*
X15846956Y-9419521D02*
X15846956Y-9381426D01*
X15846956Y-9381426D02*
X15837432Y-9333807D01*
X15837432Y-9333807D02*
X15827908Y-9305235D01*
X15827908Y-9305235D02*
X15818384Y-9286188D01*
X15818384Y-9286188D02*
X15799337Y-9257616D01*
X15799337Y-9257616D02*
X15789813Y-9248092D01*
D12*
X11014750Y-9649180D02*
G75*
G02*
X10924750Y-9649180I-45000J0D01*
G01*
X10924750Y-9649180D02*
G75*
G02*
X11014750Y-9649180I45000J0D01*
G01*
D11*
X11313622Y-9540664D02*
X11332670Y-9540664D01*
X11332670Y-9540664D02*
X11351717Y-9550188D01*
X11351717Y-9550188D02*
X11361241Y-9559711D01*
X11361241Y-9559711D02*
X11370765Y-9578759D01*
X11370765Y-9578759D02*
X11380289Y-9616854D01*
X11380289Y-9616854D02*
X11380289Y-9664473D01*
X11380289Y-9664473D02*
X11370765Y-9702569D01*
X11370765Y-9702569D02*
X11361241Y-9721616D01*
X11361241Y-9721616D02*
X11351717Y-9731140D01*
X11351717Y-9731140D02*
X11332670Y-9740664D01*
X11332670Y-9740664D02*
X11313622Y-9740664D01*
X11313622Y-9740664D02*
X11294574Y-9731140D01*
X11294574Y-9731140D02*
X11285051Y-9721616D01*
X11285051Y-9721616D02*
X11275527Y-9702569D01*
X11275527Y-9702569D02*
X11266003Y-9664473D01*
X11266003Y-9664473D02*
X11266003Y-9616854D01*
X11266003Y-9616854D02*
X11275527Y-9578759D01*
X11275527Y-9578759D02*
X11285051Y-9559711D01*
X11285051Y-9559711D02*
X11294574Y-9550188D01*
X11294574Y-9550188D02*
X11313622Y-9540664D01*
X11466003Y-9721616D02*
X11475527Y-9731140D01*
X11475527Y-9731140D02*
X11466003Y-9740664D01*
X11466003Y-9740664D02*
X11456479Y-9731140D01*
X11456479Y-9731140D02*
X11466003Y-9721616D01*
X11466003Y-9721616D02*
X11466003Y-9740664D01*
X11570765Y-9740664D02*
X11608860Y-9740664D01*
X11608860Y-9740664D02*
X11627908Y-9731140D01*
X11627908Y-9731140D02*
X11637432Y-9721616D01*
X11637432Y-9721616D02*
X11656479Y-9693045D01*
X11656479Y-9693045D02*
X11666003Y-9654950D01*
X11666003Y-9654950D02*
X11666003Y-9578759D01*
X11666003Y-9578759D02*
X11656479Y-9559711D01*
X11656479Y-9559711D02*
X11646955Y-9550188D01*
X11646955Y-9550188D02*
X11627908Y-9540664D01*
X11627908Y-9540664D02*
X11589812Y-9540664D01*
X11589812Y-9540664D02*
X11570765Y-9550188D01*
X11570765Y-9550188D02*
X11561241Y-9559711D01*
X11561241Y-9559711D02*
X11551717Y-9578759D01*
X11551717Y-9578759D02*
X11551717Y-9626378D01*
X11551717Y-9626378D02*
X11561241Y-9645426D01*
X11561241Y-9645426D02*
X11570765Y-9654950D01*
X11570765Y-9654950D02*
X11589812Y-9664473D01*
X11589812Y-9664473D02*
X11627908Y-9664473D01*
X11627908Y-9664473D02*
X11646955Y-9654950D01*
X11646955Y-9654950D02*
X11656479Y-9645426D01*
X11656479Y-9645426D02*
X11666003Y-9626378D01*
X11789812Y-9540664D02*
X11808860Y-9540664D01*
X11808860Y-9540664D02*
X11827908Y-9550188D01*
X11827908Y-9550188D02*
X11837432Y-9559711D01*
X11837432Y-9559711D02*
X11846955Y-9578759D01*
X11846955Y-9578759D02*
X11856479Y-9616854D01*
X11856479Y-9616854D02*
X11856479Y-9664473D01*
X11856479Y-9664473D02*
X11846955Y-9702569D01*
X11846955Y-9702569D02*
X11837432Y-9721616D01*
X11837432Y-9721616D02*
X11827908Y-9731140D01*
X11827908Y-9731140D02*
X11808860Y-9740664D01*
X11808860Y-9740664D02*
X11789812Y-9740664D01*
X11789812Y-9740664D02*
X11770765Y-9731140D01*
X11770765Y-9731140D02*
X11761241Y-9721616D01*
X11761241Y-9721616D02*
X11751717Y-9702569D01*
X11751717Y-9702569D02*
X11742193Y-9664473D01*
X11742193Y-9664473D02*
X11742193Y-9616854D01*
X11742193Y-9616854D02*
X11751717Y-9578759D01*
X11751717Y-9578759D02*
X11761241Y-9559711D01*
X11761241Y-9559711D02*
X11770765Y-9550188D01*
X11770765Y-9550188D02*
X11789812Y-9540664D01*
X11980289Y-9540664D02*
X11999336Y-9540664D01*
X11999336Y-9540664D02*
X12018384Y-9550188D01*
X12018384Y-9550188D02*
X12027908Y-9559711D01*
X12027908Y-9559711D02*
X12037432Y-9578759D01*
X12037432Y-9578759D02*
X12046955Y-9616854D01*
X12046955Y-9616854D02*
X12046955Y-9664473D01*
X12046955Y-9664473D02*
X12037432Y-9702569D01*
X12037432Y-9702569D02*
X12027908Y-9721616D01*
X12027908Y-9721616D02*
X12018384Y-9731140D01*
X12018384Y-9731140D02*
X11999336Y-9740664D01*
X11999336Y-9740664D02*
X11980289Y-9740664D01*
X11980289Y-9740664D02*
X11961241Y-9731140D01*
X11961241Y-9731140D02*
X11951717Y-9721616D01*
X11951717Y-9721616D02*
X11942193Y-9702569D01*
X11942193Y-9702569D02*
X11932670Y-9664473D01*
X11932670Y-9664473D02*
X11932670Y-9616854D01*
X11932670Y-9616854D02*
X11942193Y-9578759D01*
X11942193Y-9578759D02*
X11951717Y-9559711D01*
X11951717Y-9559711D02*
X11961241Y-9550188D01*
X11961241Y-9550188D02*
X11980289Y-9540664D01*
X12132670Y-9740664D02*
X12132670Y-9607330D01*
X12132670Y-9626378D02*
X12142193Y-9616854D01*
X12142193Y-9616854D02*
X12161241Y-9607330D01*
X12161241Y-9607330D02*
X12189813Y-9607330D01*
X12189813Y-9607330D02*
X12208860Y-9616854D01*
X12208860Y-9616854D02*
X12218384Y-9635902D01*
X12218384Y-9635902D02*
X12218384Y-9740664D01*
X12218384Y-9635902D02*
X12227908Y-9616854D01*
X12227908Y-9616854D02*
X12246955Y-9607330D01*
X12246955Y-9607330D02*
X12275527Y-9607330D01*
X12275527Y-9607330D02*
X12294574Y-9616854D01*
X12294574Y-9616854D02*
X12304098Y-9635902D01*
X12304098Y-9635902D02*
X12304098Y-9740664D01*
X12399336Y-9740664D02*
X12399336Y-9607330D01*
X12399336Y-9626378D02*
X12408860Y-9616854D01*
X12408860Y-9616854D02*
X12427908Y-9607330D01*
X12427908Y-9607330D02*
X12456479Y-9607330D01*
X12456479Y-9607330D02*
X12475527Y-9616854D01*
X12475527Y-9616854D02*
X12485051Y-9635902D01*
X12485051Y-9635902D02*
X12485051Y-9740664D01*
X12485051Y-9635902D02*
X12494574Y-9616854D01*
X12494574Y-9616854D02*
X12513622Y-9607330D01*
X12513622Y-9607330D02*
X12542193Y-9607330D01*
X12542193Y-9607330D02*
X12561241Y-9616854D01*
X12561241Y-9616854D02*
X12570765Y-9635902D01*
X12570765Y-9635902D02*
X12570765Y-9740664D01*
X12961241Y-9531140D02*
X12789813Y-9788283D01*
X13218384Y-9540664D02*
X13237432Y-9540664D01*
X13237432Y-9540664D02*
X13256479Y-9550188D01*
X13256479Y-9550188D02*
X13266003Y-9559711D01*
X13266003Y-9559711D02*
X13275527Y-9578759D01*
X13275527Y-9578759D02*
X13285051Y-9616854D01*
X13285051Y-9616854D02*
X13285051Y-9664473D01*
X13285051Y-9664473D02*
X13275527Y-9702569D01*
X13275527Y-9702569D02*
X13266003Y-9721616D01*
X13266003Y-9721616D02*
X13256479Y-9731140D01*
X13256479Y-9731140D02*
X13237432Y-9740664D01*
X13237432Y-9740664D02*
X13218384Y-9740664D01*
X13218384Y-9740664D02*
X13199336Y-9731140D01*
X13199336Y-9731140D02*
X13189813Y-9721616D01*
X13189813Y-9721616D02*
X13180289Y-9702569D01*
X13180289Y-9702569D02*
X13170765Y-9664473D01*
X13170765Y-9664473D02*
X13170765Y-9616854D01*
X13170765Y-9616854D02*
X13180289Y-9578759D01*
X13180289Y-9578759D02*
X13189813Y-9559711D01*
X13189813Y-9559711D02*
X13199336Y-9550188D01*
X13199336Y-9550188D02*
X13218384Y-9540664D01*
X13370765Y-9721616D02*
X13380289Y-9731140D01*
X13380289Y-9731140D02*
X13370765Y-9740664D01*
X13370765Y-9740664D02*
X13361241Y-9731140D01*
X13361241Y-9731140D02*
X13370765Y-9721616D01*
X13370765Y-9721616D02*
X13370765Y-9740664D01*
X13504098Y-9540664D02*
X13523146Y-9540664D01*
X13523146Y-9540664D02*
X13542194Y-9550188D01*
X13542194Y-9550188D02*
X13551717Y-9559711D01*
X13551717Y-9559711D02*
X13561241Y-9578759D01*
X13561241Y-9578759D02*
X13570765Y-9616854D01*
X13570765Y-9616854D02*
X13570765Y-9664473D01*
X13570765Y-9664473D02*
X13561241Y-9702569D01*
X13561241Y-9702569D02*
X13551717Y-9721616D01*
X13551717Y-9721616D02*
X13542194Y-9731140D01*
X13542194Y-9731140D02*
X13523146Y-9740664D01*
X13523146Y-9740664D02*
X13504098Y-9740664D01*
X13504098Y-9740664D02*
X13485051Y-9731140D01*
X13485051Y-9731140D02*
X13475527Y-9721616D01*
X13475527Y-9721616D02*
X13466003Y-9702569D01*
X13466003Y-9702569D02*
X13456479Y-9664473D01*
X13456479Y-9664473D02*
X13456479Y-9616854D01*
X13456479Y-9616854D02*
X13466003Y-9578759D01*
X13466003Y-9578759D02*
X13475527Y-9559711D01*
X13475527Y-9559711D02*
X13485051Y-9550188D01*
X13485051Y-9550188D02*
X13504098Y-9540664D01*
X13637432Y-9540664D02*
X13761241Y-9540664D01*
X13761241Y-9540664D02*
X13694575Y-9616854D01*
X13694575Y-9616854D02*
X13723146Y-9616854D01*
X13723146Y-9616854D02*
X13742194Y-9626378D01*
X13742194Y-9626378D02*
X13751717Y-9635902D01*
X13751717Y-9635902D02*
X13761241Y-9654950D01*
X13761241Y-9654950D02*
X13761241Y-9702569D01*
X13761241Y-9702569D02*
X13751717Y-9721616D01*
X13751717Y-9721616D02*
X13742194Y-9731140D01*
X13742194Y-9731140D02*
X13723146Y-9740664D01*
X13723146Y-9740664D02*
X13666003Y-9740664D01*
X13666003Y-9740664D02*
X13646956Y-9731140D01*
X13646956Y-9731140D02*
X13637432Y-9721616D01*
X13942194Y-9540664D02*
X13846956Y-9540664D01*
X13846956Y-9540664D02*
X13837432Y-9635902D01*
X13837432Y-9635902D02*
X13846956Y-9626378D01*
X13846956Y-9626378D02*
X13866003Y-9616854D01*
X13866003Y-9616854D02*
X13913622Y-9616854D01*
X13913622Y-9616854D02*
X13932670Y-9626378D01*
X13932670Y-9626378D02*
X13942194Y-9635902D01*
X13942194Y-9635902D02*
X13951717Y-9654950D01*
X13951717Y-9654950D02*
X13951717Y-9702569D01*
X13951717Y-9702569D02*
X13942194Y-9721616D01*
X13942194Y-9721616D02*
X13932670Y-9731140D01*
X13932670Y-9731140D02*
X13913622Y-9740664D01*
X13913622Y-9740664D02*
X13866003Y-9740664D01*
X13866003Y-9740664D02*
X13846956Y-9731140D01*
X13846956Y-9731140D02*
X13837432Y-9721616D01*
X14123146Y-9607330D02*
X14123146Y-9740664D01*
X14075527Y-9531140D02*
X14027908Y-9673997D01*
X14027908Y-9673997D02*
X14151717Y-9673997D01*
X14218384Y-9540664D02*
X14218384Y-9578759D01*
X14294575Y-9540664D02*
X14294575Y-9578759D01*
X14589813Y-9816854D02*
X14580289Y-9807330D01*
X14580289Y-9807330D02*
X14561241Y-9778759D01*
X14561241Y-9778759D02*
X14551718Y-9759711D01*
X14551718Y-9759711D02*
X14542194Y-9731140D01*
X14542194Y-9731140D02*
X14532670Y-9683521D01*
X14532670Y-9683521D02*
X14532670Y-9645426D01*
X14532670Y-9645426D02*
X14542194Y-9597807D01*
X14542194Y-9597807D02*
X14551718Y-9569235D01*
X14551718Y-9569235D02*
X14561241Y-9550188D01*
X14561241Y-9550188D02*
X14580289Y-9521616D01*
X14580289Y-9521616D02*
X14589813Y-9512092D01*
X14751718Y-9540664D02*
X14713622Y-9540664D01*
X14713622Y-9540664D02*
X14694575Y-9550188D01*
X14694575Y-9550188D02*
X14685051Y-9559711D01*
X14685051Y-9559711D02*
X14666003Y-9588283D01*
X14666003Y-9588283D02*
X14656479Y-9626378D01*
X14656479Y-9626378D02*
X14656479Y-9702569D01*
X14656479Y-9702569D02*
X14666003Y-9721616D01*
X14666003Y-9721616D02*
X14675527Y-9731140D01*
X14675527Y-9731140D02*
X14694575Y-9740664D01*
X14694575Y-9740664D02*
X14732670Y-9740664D01*
X14732670Y-9740664D02*
X14751718Y-9731140D01*
X14751718Y-9731140D02*
X14761241Y-9721616D01*
X14761241Y-9721616D02*
X14770765Y-9702569D01*
X14770765Y-9702569D02*
X14770765Y-9654950D01*
X14770765Y-9654950D02*
X14761241Y-9635902D01*
X14761241Y-9635902D02*
X14751718Y-9626378D01*
X14751718Y-9626378D02*
X14732670Y-9616854D01*
X14732670Y-9616854D02*
X14694575Y-9616854D01*
X14694575Y-9616854D02*
X14675527Y-9626378D01*
X14675527Y-9626378D02*
X14666003Y-9635902D01*
X14666003Y-9635902D02*
X14656479Y-9654950D01*
X15008860Y-9740664D02*
X15008860Y-9540664D01*
X15094575Y-9740664D02*
X15094575Y-9635902D01*
X15094575Y-9635902D02*
X15085051Y-9616854D01*
X15085051Y-9616854D02*
X15066003Y-9607330D01*
X15066003Y-9607330D02*
X15037432Y-9607330D01*
X15037432Y-9607330D02*
X15018384Y-9616854D01*
X15018384Y-9616854D02*
X15008860Y-9626378D01*
X15218384Y-9740664D02*
X15199337Y-9731140D01*
X15199337Y-9731140D02*
X15189813Y-9721616D01*
X15189813Y-9721616D02*
X15180289Y-9702569D01*
X15180289Y-9702569D02*
X15180289Y-9645426D01*
X15180289Y-9645426D02*
X15189813Y-9626378D01*
X15189813Y-9626378D02*
X15199337Y-9616854D01*
X15199337Y-9616854D02*
X15218384Y-9607330D01*
X15218384Y-9607330D02*
X15246956Y-9607330D01*
X15246956Y-9607330D02*
X15266003Y-9616854D01*
X15266003Y-9616854D02*
X15275527Y-9626378D01*
X15275527Y-9626378D02*
X15285051Y-9645426D01*
X15285051Y-9645426D02*
X15285051Y-9702569D01*
X15285051Y-9702569D02*
X15275527Y-9721616D01*
X15275527Y-9721616D02*
X15266003Y-9731140D01*
X15266003Y-9731140D02*
X15246956Y-9740664D01*
X15246956Y-9740664D02*
X15218384Y-9740664D01*
X15399337Y-9740664D02*
X15380289Y-9731140D01*
X15380289Y-9731140D02*
X15370765Y-9712092D01*
X15370765Y-9712092D02*
X15370765Y-9540664D01*
X15551718Y-9731140D02*
X15532670Y-9740664D01*
X15532670Y-9740664D02*
X15494575Y-9740664D01*
X15494575Y-9740664D02*
X15475527Y-9731140D01*
X15475527Y-9731140D02*
X15466003Y-9712092D01*
X15466003Y-9712092D02*
X15466003Y-9635902D01*
X15466003Y-9635902D02*
X15475527Y-9616854D01*
X15475527Y-9616854D02*
X15494575Y-9607330D01*
X15494575Y-9607330D02*
X15532670Y-9607330D01*
X15532670Y-9607330D02*
X15551718Y-9616854D01*
X15551718Y-9616854D02*
X15561241Y-9635902D01*
X15561241Y-9635902D02*
X15561241Y-9654950D01*
X15561241Y-9654950D02*
X15466003Y-9673997D01*
X15637432Y-9731140D02*
X15656480Y-9740664D01*
X15656480Y-9740664D02*
X15694575Y-9740664D01*
X15694575Y-9740664D02*
X15713622Y-9731140D01*
X15713622Y-9731140D02*
X15723146Y-9712092D01*
X15723146Y-9712092D02*
X15723146Y-9702569D01*
X15723146Y-9702569D02*
X15713622Y-9683521D01*
X15713622Y-9683521D02*
X15694575Y-9673997D01*
X15694575Y-9673997D02*
X15666003Y-9673997D01*
X15666003Y-9673997D02*
X15646956Y-9664473D01*
X15646956Y-9664473D02*
X15637432Y-9645426D01*
X15637432Y-9645426D02*
X15637432Y-9635902D01*
X15637432Y-9635902D02*
X15646956Y-9616854D01*
X15646956Y-9616854D02*
X15666003Y-9607330D01*
X15666003Y-9607330D02*
X15694575Y-9607330D01*
X15694575Y-9607330D02*
X15713622Y-9616854D01*
X15789813Y-9816854D02*
X15799337Y-9807330D01*
X15799337Y-9807330D02*
X15818384Y-9778759D01*
X15818384Y-9778759D02*
X15827908Y-9759711D01*
X15827908Y-9759711D02*
X15837432Y-9731140D01*
X15837432Y-9731140D02*
X15846956Y-9683521D01*
X15846956Y-9683521D02*
X15846956Y-9645426D01*
X15846956Y-9645426D02*
X15837432Y-9597807D01*
X15837432Y-9597807D02*
X15827908Y-9569235D01*
X15827908Y-9569235D02*
X15818384Y-9550188D01*
X15818384Y-9550188D02*
X15799337Y-9521616D01*
X15799337Y-9521616D02*
X15789813Y-9512092D01*
M02*
